<?xml version="1.0" encoding="utf-8"?>
<!-- Generator: Adobe Illustrator 23.0.6, SVG Export Plug-In . SVG Version: 6.00 Build 0)  -->
<svg version="1.1" id="Capa_1" xmlns="http://www.w3.org/2000/svg" xmlns:xlink="http://www.w3.org/1999/xlink" x="0px" y="0px"
	 viewBox="0 0 235.37 235.37" style="enable-background:new 0 0 235.37 235.37;" xml:space="preserve">
<style type="text/css">
	.st0{fill:#52BA63;}
	.st1{fill:#FAFDFB;}
</style>
<g>
	<circle class="st0" cx="117.68" cy="117.68" r="117.68"/>
	<path class="st1" d="M172.43,62.24c-14.62-14.65-34.09-22.71-54.78-22.71c-42.71,0-77.46,34.75-77.46,77.46
		c0,13.64,3.56,26.97,10.33,38.73l-10.99,40.13l41.07-10.78c11.31,6.18,24.04,9.42,37.02,9.42h0.03c42.67,0,78.19-34.75,78.19-77.46
		C195.84,96.33,187.05,76.89,172.43,62.24z M117.65,181.43c-11.58,0-22.92-3.11-32.8-8.97l-2.34-1.4l-24.35,6.39l6.49-23.76
		l-1.54-2.44c-6.46-10.26-9.84-22.09-9.84-34.26c0-35.49,28.89-64.38,64.41-64.38c17.2,0,33.36,6.7,45.5,18.88
		s19.61,28.33,19.57,45.53C182.76,152.54,153.13,181.43,117.65,181.43z M152.96,133.21c-1.92-0.98-11.44-5.65-13.22-6.28
		c-1.78-0.66-3.07-0.98-4.36,0.98c-1.29,1.95-4.99,6.28-6.14,7.61c-1.12,1.29-2.27,1.47-4.19,0.49
		c-11.37-5.69-18.84-10.15-26.34-23.03c-1.99-3.42,1.99-3.18,5.69-10.57c0.63-1.29,0.31-2.41-0.17-3.38s-4.36-10.5-5.97-14.38
		c-1.57-3.77-3.18-3.24-4.36-3.31c-1.12-0.07-2.41-0.07-3.7-0.07c-1.29,0-3.38,0.49-5.16,2.41c-1.78,1.95-6.77,6.63-6.77,16.16
		s6.94,18.74,7.89,20.03c0.98,1.29,13.64,20.83,33.08,29.24c12.28,5.3,17.1,5.76,23.24,4.85c3.73-0.56,11.44-4.68,13.05-9.21
		c1.61-4.54,1.61-8.41,1.12-9.21C156.17,134.64,154.88,134.15,152.96,133.21z"/>
</g>
</svg>
